<mxfile host="app.diagrams.net" agent="Mozilla/5.0 (Windows NT 10.0; Win64; x64) AppleWebKit/537.36 (KHTML, like Gecko) Chrome/131.0.0.0 Safari/537.36" version="24.8.6">
  <diagram name="Page-1" id="7mEb1wNhcMJaG17HlLb3">
    <mxGraphModel dx="910" dy="490" grid="1" gridSize="10" guides="1" tooltips="1" connect="1" arrows="1" fold="1" page="1" pageScale="1" pageWidth="850" pageHeight="1100" math="0" shadow="0">
      <root>
        <mxCell id="0" />
        <mxCell id="1" parent="0" />
        <mxCell id="1eRntYkm6K6gUpEh92Vu-1" value="&lt;font size=&quot;1&quot;&gt;Bắt đầu&amp;nbsp;&lt;/font&gt;" style="ellipse;whiteSpace=wrap;html=1;strokeColor=#000000;fontFamily=Times New Roman;" vertex="1" parent="1">
          <mxGeometry x="365" y="10" width="120" height="80" as="geometry" />
        </mxCell>
        <mxCell id="1eRntYkm6K6gUpEh92Vu-2" value="" style="endArrow=classic;html=1;rounded=0;" edge="1" parent="1">
          <mxGeometry width="50" height="50" relative="1" as="geometry">
            <mxPoint x="424" y="90" as="sourcePoint" />
            <mxPoint x="424" y="150" as="targetPoint" />
          </mxGeometry>
        </mxCell>
        <mxCell id="1eRntYkm6K6gUpEh92Vu-3" value="Nhập a,b&amp;nbsp;&lt;div&gt;a,b !=0&lt;/div&gt;" style="shape=parallelogram;perimeter=parallelogramPerimeter;whiteSpace=wrap;html=1;fixedSize=1;" vertex="1" parent="1">
          <mxGeometry x="365" y="150" width="120" height="60" as="geometry" />
        </mxCell>
        <mxCell id="1eRntYkm6K6gUpEh92Vu-4" value="" style="endArrow=classic;html=1;rounded=0;" edge="1" parent="1">
          <mxGeometry width="50" height="50" relative="1" as="geometry">
            <mxPoint x="425" y="210" as="sourcePoint" />
            <mxPoint x="425" y="280" as="targetPoint" />
          </mxGeometry>
        </mxCell>
        <mxCell id="1eRntYkm6K6gUpEh92Vu-67" value="a+b&lt;div&gt;a-b&lt;/div&gt;&lt;div&gt;a*b&lt;/div&gt;&lt;div&gt;a%b&lt;/div&gt;" style="rounded=0;whiteSpace=wrap;html=1;" vertex="1" parent="1">
          <mxGeometry x="370" y="280" width="120" height="80" as="geometry" />
        </mxCell>
        <mxCell id="1eRntYkm6K6gUpEh92Vu-68" value="" style="endArrow=classic;html=1;rounded=0;exitX=0.5;exitY=1;exitDx=0;exitDy=0;" edge="1" parent="1" source="1eRntYkm6K6gUpEh92Vu-67" target="1eRntYkm6K6gUpEh92Vu-69">
          <mxGeometry width="50" height="50" relative="1" as="geometry">
            <mxPoint x="400" y="410" as="sourcePoint" />
            <mxPoint x="430" y="480" as="targetPoint" />
          </mxGeometry>
        </mxCell>
        <mxCell id="1eRntYkm6K6gUpEh92Vu-69" value="End" style="ellipse;whiteSpace=wrap;html=1;" vertex="1" parent="1">
          <mxGeometry x="370" y="420" width="120" height="80" as="geometry" />
        </mxCell>
      </root>
    </mxGraphModel>
  </diagram>
</mxfile>
